<?xml version="1.0" encoding="UTF-8" standalone="no"?>
<!-- Svg Vector Icons : http://www.onlinewebfonts.com/icon -->

<svg
   xmlns:dc="http://purl.org/dc/elements/1.1/"
   xmlns:cc="http://creativecommons.org/ns#"
   xmlns:rdf="http://www.w3.org/1999/02/22-rdf-syntax-ns#"
   xmlns:svg="http://www.w3.org/2000/svg"
   xmlns="http://www.w3.org/2000/svg"
   xmlns:sodipodi="http://sodipodi.sourceforge.net/DTD/sodipodi-0.dtd"
   xmlns:inkscape="http://www.inkscape.org/namespaces/inkscape"
   version="1.1"
   x="0px"
   y="0px"
   viewBox="0 0 1000 1000"
   enable-background="new 0 0 1000 1000"
   xml:space="preserve"
   id="svg4291"
   sodipodi:docname="lichess.svg"
   inkscape:version="0.92.4 (5da689c313, 2019-01-14)"
   width="50"
   height="50"><defs
   id="defs4295" /><sodipodi:namedview
   pagecolor="#ffffff"
   bordercolor="#666666"
   borderopacity="1"
   objecttolerance="10"
   gridtolerance="10"
   guidetolerance="10"
   inkscape:pageopacity="0"
   inkscape:pageshadow="2"
   inkscape:window-width="1920"
   inkscape:window-height="1017"
   id="namedview4293"
   showgrid="false"
   inkscape:zoom="7.552"
   inkscape:cx="71.440347"
   inkscape:cy="30.712524"
   inkscape:window-x="-8"
   inkscape:window-y="-8"
   inkscape:window-maximized="1"
   inkscape:current-layer="svg4291"
   fit-margin-top="0"
   fit-margin-left="0"
   fit-margin-right="0"
   fit-margin-bottom="0" />
<metadata
   id="metadata4275"> Svg Vector Icons : http://www.onlinewebfonts.com/icon <rdf:RDF><cc:Work
     rdf:about=""><dc:format>image/svg+xml</dc:format><dc:type
       rdf:resource="http://purl.org/dc/dcmitype/StillImage" /><dc:title></dc:title></cc:Work></rdf:RDF></metadata>
<g
   id="g4289"
   style="fill:#ff8719;fill-opacity:1"
   transform="translate(1.47,9.999999)"><g
     transform="matrix(0.1,0,0,-0.1,0,511)"
     id="g4287"
     style="fill:#ff8719;fill-opacity:1"><path
       d="m 4858.4,4995.4 c -189.6,-50.1 -366,-200.5 -451,-383.5 -76.3,-167.8 -71.9,-435.8 10.9,-603.6 106.8,-217.9 300.7,-346.4 542.6,-361.7 274.5,-17.4 499,113.3 621,361.7 52.3,106.8 61,150.4 61,309.4 0,217.9 -50.1,350.8 -180.8,485.9 -152.7,159.1 -414.2,241.9 -603.7,191.8 z"
       id="path4277"
       style="fill:#ff8719;fill-opacity:1"
       inkscape:connector-curvature="0" /><path
       d="m 3226.4,3023.5 c -115.5,-209.2 -209.2,-387.9 -209.2,-400.9 0,-13 63.2,-67.5 139.4,-122 244,-174.3 546.9,-553.4 677.6,-849.8 l 54.5,-124.2 -43.6,-56.7 c -54.5,-69.7 -58.8,-235.3 -8.7,-307.2 78.4,-113.3 82.8,-113.3 1163.5,-113.3 1080.7,0 1085.1,0 1163.5,113.3 50.1,71.9 45.7,237.5 -8.7,307.2 l -43.6,56.7 54.5,124.2 c 130.7,296.3 433.6,675.5 677.6,849.8 76.3,54.5 139.5,109 139.5,122 0,50.1 -418.4,780 -446.7,780 -17.4,0 -93.7,-32.7 -167.8,-69.7 -128.5,-67.5 -152.5,-71.9 -357.3,-71.9 -204.8,0 -226.6,4.4 -361.7,74.1 l -143.8,71.9 -148.2,-71.9 C 5217.7,3265.4 5193.8,3261 4989,3261 c -207,0 -224.4,4.4 -355.2,74.1 l -135.1,74.1 -146,-74.1 c -137.3,-69.7 -159.1,-74.1 -363.9,-74.1 -204.8,0 -228.8,4.4 -357.3,71.9 -74.1,37.1 -150.4,69.7 -167.8,69.7 -15.1,0.1 -121.8,-169.9 -237.3,-379.1 z"
       id="path4279"
       style="fill:#ff8719;fill-opacity:1"
       inkscape:connector-curvature="0" /><path
       d="M 4115.4,271.6 4117.6,-5.1 3808.1,-138 c -172.1,-71.9 -311.6,-135.1 -311.6,-141.6 0,-6.5 169.9,-82.8 376.9,-170 l 374.8,-156.9 h 751.8 751.7 l 376.9,156.9 c 204.8,87.2 374.8,163.4 374.8,170 0,6.5 -139.5,69.7 -311.6,141.6 l -309.3,132.9 2.2,276.7 V 548.3 H 5000 4115.4 Z"
       id="path4281"
       style="fill:#ff8719;fill-opacity:1"
       inkscape:connector-curvature="0" /><path
       d="m 4248.3,-1177.4 c -4.4,-28.3 -26.2,-143.8 -43.6,-257.1 -82.8,-499 -276.7,-1172.2 -453.2,-1579.7 l -95.9,-217.9 673.3,-6.5 c 368.2,-2.2 974,-2.2 1344.4,0 l 671.1,6.5 -85,193.9 c -183,418.3 -379.1,1089.4 -461.9,1592.8 -21.8,119.8 -41.4,239.7 -47.9,268 l -8.7,47.9 H 5000 4259.2 Z"
       id="path4283"
       style="fill:#ff8719;fill-opacity:1"
       inkscape:connector-curvature="0" /><path
       d="m 2893,-3935.9 -220.1,-124.2 -143.8,-348.6 c -78.4,-191.7 -143.8,-355.2 -143.8,-363.9 0,-10.9 1176.6,-17.4 2614.7,-17.4 1438.1,0 2614.7,6.5 2614.7,13.1 0,6.5 -89.3,172.1 -196.1,363.9 l -198.3,353 -224.5,126.4 -224.4,124.2 H 4943.3 l -1828.1,-2.2 z"
       id="path4285"
       style="fill:#ff8719;fill-opacity:1"
       inkscape:connector-curvature="0" /></g></g>
</svg>